<svg xmlns="http://www.w3.org/2000/svg" viewBox="0 0 200 200" width="200" height="200">
  <!-- Hareket çizgileri -->
  <line x1="20" y1="60" x2="5" y2="55" stroke="#555" stroke-width="2" stroke-linecap="round"/>
  <line x1="18" y1="72" x2="2" y2="72" stroke="#555" stroke-width="2" stroke-linecap="round"/>
  <line x1="20" y1="84" x2="5" y2="89" stroke="#555" stroke-width="2" stroke-linecap="round"/>
  <line x1="180" y1="60" x2="195" y2="55" stroke="#555" stroke-width="2" stroke-linecap="round"/>
  <line x1="182" y1="72" x2="198" y2="72" stroke="#555" stroke-width="2" stroke-linecap="round"/>
  <line x1="180" y1="84" x2="195" y2="89" stroke="#555" stroke-width="2" stroke-linecap="round"/>
  <!-- Yıldızlar -->
  <text x="28" y="28" font-size="12" fill="#888">✦</text>
  <text x="160" y="22" font-size="10" fill="#888">✦</text>
  <text x="170" y="165" font-size="14" fill="#888">✦</text>
  <text x="18" y="160" font-size="9" fill="#888">✦</text>
  <!-- Top gölgesi -->
  <ellipse cx="100" cy="175" rx="52" ry="8" fill="rgba(0,0,0,0.25)"/>
  <!-- Top ana daire -->
  <circle cx="100" cy="100" r="72" fill="white" stroke="#111" stroke-width="3.5"/>
  <!-- Beşgen desenler -->
  <polygon points="100,38 115,52 110,70 90,70 85,52" fill="#1a1a1a" stroke="#111" stroke-width="1.5"/>
  <polygon points="155,72 162,90 148,102 134,94 136,76" fill="#1a1a1a" stroke="#111" stroke-width="1.5"/>
  <polygon points="140,148 126,156 112,146 116,128 134,126" fill="#1a1a1a" stroke="#111" stroke-width="1.5"/>
  <polygon points="60,148 66,128 84,126 88,146 74,156" fill="#1a1a1a" stroke="#111" stroke-width="1.5"/>
  <polygon points="45,72 64,76 66,94 52,102 38,90" fill="#1a1a1a" stroke="#111" stroke-width="1.5"/>
  <!-- Beyaz yüzey çizgileri -->
  <line x1="100" y1="38" x2="115" y2="52" stroke="#ddd" stroke-width="1"/>
  <line x1="100" y1="38" x2="85" y2="52" stroke="#ddd" stroke-width="1"/>
  <line x1="155" y1="72" x2="136" y2="76" stroke="#ddd" stroke-width="1"/>
  <line x1="45" y1="72" x2="64" y2="76" stroke="#ddd" stroke-width="1"/>
  <!-- Parlama -->
  <ellipse cx="78" cy="68" rx="14" ry="9" fill="rgba(255,255,255,0.55)" transform="rotate(-30,78,68)"/>
  <!-- KAYIT OL yazısı - gölge -->
  <text x="102" y="108" text-anchor="middle" font-family="Arial Black, sans-serif" font-weight="900" font-size="22" fill="#333" letter-spacing="1">KAYIT OL</text>
  <!-- KAYIT OL yazısı - ana -->
  <text x="100" y="106" text-anchor="middle" font-family="Arial Black, sans-serif" font-weight="900" font-size="22" fill="white" stroke="#222" stroke-width="3" paint-order="stroke" letter-spacing="1">KAYIT OL</text>
</svg>
